<svg width="60" height="55" viewBox="978 773 60 55" xmlns="http://www.w3.org/2000/svg"><g fill="none" fill-rule="evenodd" stroke="#000"><path d="M1015.996 779.679l19.068 33.026c3.447 5.972-.863 13.436-7.757 13.436H989.17c-6.894 0-11.204-7.464-7.756-13.436l19.067-33.026c3.448-5.971 12.067-5.971 15.515 0zm-33.854 43.059l43.575-26.22" stroke-width="2.5"/><path d="M1016.547 813.692a5.067 5.067 0 1 1 10.063 1.193 5.067 5.067 0 0 1-10.063-1.193z"/><path d="M1024.859 814.289a3.281 3.281 0 1 1-6.563-.001 3.281 3.281 0 0 1 6.563 0z"/></g></svg>