<svg height="320" viewBox="0 0 320 320" width="320" xmlns="http://www.w3.org/2000/svg"><path d="M162.23 56.5c8.45 0 17.01 1.84 24.71 5.29 12.76 5.72 23.18 16.52 28.34 29.56 2.95 7.47 3.04 16.06 2.97 23.97-.04 4.56-.25 9.13-.52 13.68-.13 2.29-.28 4.58-.42 6.87-.08 1.26-.16 2.51-.23 3.77-.05.81-.33 1.9-.15 2.7.39 1.75 3.17 2.92 4.71 3.41 4.05 1.28 8.29.35 12.19-1.03 2.33-.83 4.42-2.21 6.97-1.98 1.85.17 3.99.99 5.3 2.33 1.38 1.41 1.09 2.79-.1 4.14-2.26 2.56-5.98 4.02-9.13 5.05-3.45 1.14-6.95 2.14-10.17 3.87-3.17 1.7-6.09 4.15-7.34 7.63-1.45 4.04-.24 8.16 1.47 11.9 2.9 6.36 6.68 12.32 11.08 17.74 8.24 10.14 19.02 18.37 31.66 22.13 1.86.55 3.74 1.01 5.64 1.36.81.15 1.33-.03 1.04.82-.04.11-.11.21-.17.31-.42.71-1.11 1.27-1.77 1.75-3.72 2.72-8.63 3.98-13.03 5.06-2.08.51-4.18.95-6.29 1.35-2.09.39-4.64.4-6.6 1.25-3.27 1.42-3.75 6.29-4.42 9.29-.26 1.17-.53 2.35-.84 3.51-.28 1.03-.19 1.56-1.29 1.58-1.89.03-3.79-.47-5.63-.81-4.34-.8-8.74-1.23-13.16-1.12-4.82.12-9.75.67-14.24 2.54-4.29 1.79-8.13 4.48-11.91 7.15-6.6 4.66-13.31 9.28-21.33 11.06-4.02.89-8.18.98-12.28.85-4.37-.14-8.68-1.05-12.74-2.68-7.74-3.11-14.04-8.6-21.02-13-3.97-2.5-8.19-4.48-12.85-5.21-4.95-.78-9.98-.93-14.96-.4-1.93.21-3.85.51-5.76.87-1.87.35-3.9 1.01-5.81.94-.9-.04-.91-.31-1.15-1.16-.35-1.26-.64-2.53-.93-3.81-.43-1.95-.8-3.95-1.5-5.83-.55-1.47-1.36-2.96-2.83-3.67-1.88-.91-4.46-.89-6.5-1.27-3.81-.71-7.6-1.56-11.3-2.72-3.18-1-7-2.22-9.39-4.7-.23-.24-.45-.48-.62-.77-.06-.09-.13-.19-.17-.29-.26-.8.05-.69.83-.83a55.8 55.8 0 0 0 10.75-3.11c6.35-2.55 12.19-6.25 17.37-10.71 7.59-6.55 13.87-14.7 18.55-23.55 1.6-3.02 3.32-6.33 3.86-9.71 1.36-8.48-5.62-13.28-12.66-15.84-3.74-1.36-7.59-2.29-11.08-4.27-1.59-.9-4.68-2.71-4.44-4.96.18-1.71 2.3-2.87 3.72-3.4.96-.36 2.01-.59 3.04-.54 1.24.07 2.3.72 3.43 1.19 4.11 1.68 8.71 2.89 13.17 2.19 2.23-.35 4.54-1.19 6.15-2.84.39-.4.53-.56.62-1.04.16-.89-.11-2.07-.17-2.96-.14-2.37-.29-4.74-.44-7.11-.56-9.03-1.1-18.14-.43-27.18.29-3.88.79-7.79 1.93-11.52 1.12-3.71 3.01-7.22 5.03-10.51 3.72-6.06 8.56-11.41 14.31-15.6 8.44-6.14 18.63-9.66 28.99-10.65 3.3-.34 6.63-.33 9.94-.33M0 268.8C0 297.07 22.93 320 51.2 320h217.6c28.27 0 51.2-22.93 51.2-51.2V51.2C320 22.93 297.07 0 268.8 0H51.2C22.93 0 0 22.93 0 51.2v217.6"/><path d="M6 51.2C6 26.24 26.24 6 51.2 6h217.6C293.76 6 314 26.24 314 51.2v217.6c0 24.96-20.24 45.2-45.2 45.2H51.2C26.24 314 6 293.76 6 268.8V51.2m156.23.52c-7.65.03-15.07.5-22.48 2.6-11.81 3.35-22.46 10.08-30.2 19.66-4.8 5.93-8.97 12.99-10.76 20.45-2 8.32-1.98 17.09-1.72 25.59.14 4.49.4 8.98.68 13.46l.21 3.25c.05.73.58 3.49.14 3.98-.91 1.03-3.79.96-4.96.91-2.1-.08-4.18-.58-6.16-1.25-2.17-.74-4.21-2.05-6.52-2.27-3.62-.35-7.62 1.15-10.12 3.79-4.24 4.49-1.55 9.79 2.83 12.83 3.54 2.46 7.58 3.74 11.63 5.07 3.35 1.1 7.03 2.37 9.59 4.91 3.73 3.7 1.64 8.58-.33 12.62-1.53 3.15-3.33 6.18-5.28 9.09-6.65 9.9-15.53 18.6-26.4 23.73a52.16 52.16 0 0 1-10.23 3.58c-1.73.41-3.84.43-5.32 1.48-1.62 1.14-2.29 3.12-1.9 5.03.97 4.87 6.81 7.41 10.93 8.94 3.64 1.35 7.41 2.31 11.2 3.11 2.31.49 4.63.91 6.96 1.29 1.14.19 1.66.11 2.07 1.21.32.85.53 1.74.74 2.63.52 2.17.93 4.36 1.53 6.52.39 1.41.9 2.76 2.09 3.69 3.08 2.42 7.96.55 11.38-.06 9.15-1.62 19.11-1.57 27.34 3.17 7.15 4.11 13.33 9.69 20.81 13.26 7.96 3.81 16.76 4.9 25.5 4.09 8.19-.76 15.6-4.12 22.39-8.61 7.42-4.9 14.25-11.11 23.37-12.35 4.97-.67 10-.63 14.96.06 3.44.48 7.01 1.68 10.51 1.37 4.74-.41 5.24-5.58 6.06-9.31.33-1.5.48-3.75 1.38-5.04.53-.76 2.02-.68 2.92-.83 1.27-.22 2.54-.45 3.81-.69 6.64-1.3 14-2.82 19.71-6.68 1.65-1.11 3.23-2.54 4.05-4.39.77-1.74.8-3.77-.37-5.35-1.22-1.65-2.99-1.84-4.86-2.21-6.96-1.4-13.55-4.29-19.4-8.28-8.98-6.12-16.26-14.63-21.68-24a70.851 70.851 0 0 1-3.1-6c-1.45-3.16-2.76-6.9-.5-10.03 2.08-2.88 5.83-4.33 9.06-5.46 3.97-1.4 7.98-2.48 11.64-4.64 2.67-1.58 5.47-3.81 6.23-6.97 2-8.31-9.87-12.52-16.05-9.86-3.81 1.64-8.44 3.74-12.65 2.35-.27-.09-.75-.18-.95-.38-.34-.35-.16-.9-.13-1.44.07-1.22.15-2.43.22-3.65.12-1.88.24-3.76.35-5.64.53-8.89.95-17.87.14-26.76-.36-3.95-.96-7.92-2.17-11.7-1.18-3.69-3.03-7.21-5.02-10.52-3.71-6.18-8.46-11.71-14.13-16.17-8.53-6.71-18.89-10.83-29.59-12.43-3.12-.49-6.29-.75-9.45-.75M85.57 14.27a5.13 5.13 0 0 0 0 10.26 5.13 5.13 0 0 0 0-10.26m16.54 0a5.13 5.13 0 0 0 0 10.26 5.13 5.13 0 0 0 0-10.26m16.54 0a5.13 5.13 0 0 0 0 10.26 5.13 5.13 0 0 0 0-10.26m33.08 0a5.13 5.13 0 0 0 0 10.26 5.13 5.13 0 0 0 0-10.26m16.54 0a5.13 5.13 0 0 0 0 10.26 5.13 5.13 0 0 0 0-10.26m66.16 0a5.13 5.13 0 0 0 0 10.26 5.13 5.13 0 0 0 0-10.26m16.54 0a5.13 5.13 0 0 0 0 10.26 5.13 5.13 0 0 0 0-10.26M102.11 30.81a5.13 5.13 0 0 0 0 10.26 5.13 5.13 0 0 0 0-10.26m16.54 0a5.13 5.13 0 0 0 0 10.26 5.13 5.13 0 0 0 0-10.26m16.54 0a5.13 5.13 0 0 0 0 10.26 5.13 5.13 0 0 0 0-10.26m16.54 0a5.13 5.13 0 0 0 0 10.26 5.13 5.13 0 0 0 0-10.26m16.54 0a5.13 5.13 0 0 0 0 10.26 5.13 5.13 0 0 0 0-10.26m16.54 0a5.13 5.13 0 0 0 0 10.26 5.13 5.13 0 0 0 0-10.26m16.54 0a5.13 5.13 0 0 0 0 10.26 5.13 5.13 0 0 0 0-10.26m16.54 0a5.13 5.13 0 0 0 0 10.26 5.13 5.13 0 0 0 0-10.26m33.08 0a5.13 5.13 0 0 0 0 10.26 5.13 5.13 0 0 0 0-10.26m16.54 0a5.13 5.13 0 0 0 0 10.26 5.13 5.13 0 0 0 0-10.26m16.55 0a5.13 5.13 0 0 0 0 10.26 5.13 5.13 0 0 0 0-10.26M35.94 47.36a5.13 5.13 0 0 0 0 10.26 5.13 5.13 0 0 0 0-10.26m16.55 0a5.13 5.13 0 0 0 0 10.26 5.13 5.13 0 0 0 0-10.26m16.54 0a5.13 5.13 0 0 0 0 10.26 5.13 5.13 0 0 0 0-10.26m165.4 0a5.13 5.13 0 0 0 0 10.26 5.13 5.13 0 0 0 0-10.26m16.54 0a5.13 5.13 0 0 0 0 10.26 5.13 5.13 0 0 0 0-10.26m16.54 0a5.13 5.13 0 0 0 0 10.26 5.13 5.13 0 0 0 0-10.26M19.4 63.9a5.13 5.13 0 0 0 0 10.26 5.13 5.13 0 0 0 0-10.26m16.54 0a5.13 5.13 0 0 0 0 10.26 5.13 5.13 0 0 0 0-10.26m33.09 0a5.13 5.13 0 0 0 0 10.26 5.13 5.13 0 0 0 0-10.26m16.54 0a5.13 5.13 0 0 0 0 10.26 5.13 5.13 0 0 0 0-10.26m148.86 0a5.13 5.13 0 0 0 0 10.26 5.13 5.13 0 0 0 0-10.26m16.54 0a5.13 5.13 0 0 0 0 10.26 5.13 5.13 0 0 0 0-10.26m16.54 0a5.13 5.13 0 0 0 0 10.26 5.13 5.13 0 0 0 0-10.26M52.49 80.44a5.13 5.13 0 0 0 0 10.26 5.13 5.13 0 0 0 0-10.26m16.54 0a5.13 5.13 0 0 0 0 10.26 5.13 5.13 0 0 0 0-10.26m198.48 0a5.13 5.13 0 0 0 0 10.26 5.13 5.13 0 0 0 0-10.26m33.09 0a5.13 5.13 0 0 0 0 10.26 5.13 5.13 0 0 0 0-10.26M52.49 96.98a5.13 5.13 0 0 0 0 10.26 5.13 5.13 0 0 0 0-10.26m16.54 0a5.13 5.13 0 0 0 0 10.26 5.13 5.13 0 0 0 0-10.26m16.54 0a5.13 5.13 0 0 0 0 10.26 5.13 5.13 0 0 0 0-10.26m148.86 0a5.13 5.13 0 0 0 0 10.26 5.13 5.13 0 0 0 0-10.26m16.54 0a5.13 5.13 0 0 0 0 10.26 5.13 5.13 0 0 0 0-10.26M52.49 113.52a5.13 5.13 0 0 0 0 10.26 5.13 5.13 0 0 0 0-10.26m198.48 0a5.13 5.13 0 0 0 0 10.26 5.13 5.13 0 0 0 0-10.26m49.63 0a5.13 5.13 0 0 0 0 10.26 5.13 5.13 0 0 0 0-10.26M19.4 130.06a5.13 5.13 0 0 0 0 10.26 5.13 5.13 0 0 0 0-10.26m33.09 0a5.13 5.13 0 0 0 0 10.26 5.13 5.13 0 0 0 0-10.26m231.57 0a5.13 5.13 0 0 0 0 10.26 5.13 5.13 0 0 0 0-10.26m16.54 0a5.13 5.13 0 0 0 0 10.26 5.13 5.13 0 0 0 0-10.26M19.4 146.6a5.13 5.13 0 0 0 0 10.26 5.13 5.13 0 0 0 0-10.26m16.54 0a5.13 5.13 0 0 0 0 10.26 5.13 5.13 0 0 0 0-10.26m248.12 0a5.13 5.13 0 0 0 0 10.26 5.13 5.13 0 0 0 0-10.26M69.03 163.14a5.13 5.13 0 0 0 0 10.26 5.13 5.13 0 0 0 0-10.26m181.94 0a5.13 5.13 0 0 0 0 10.26 5.13 5.13 0 0 0 0-10.26m33.09 0a5.13 5.13 0 0 0 0 10.26 5.13 5.13 0 0 0 0-10.26m16.54 0a5.13 5.13 0 0 0 0 10.26 5.13 5.13 0 0 0 0-10.26M19.4 179.68a5.13 5.13 0 0 0 0 10.26 5.13 5.13 0 0 0 0-10.26m49.63 0a5.13 5.13 0 0 0 0 10.26 5.13 5.13 0 0 0 0-10.26m198.48 0a5.13 5.13 0 0 0 0 10.26 5.13 5.13 0 0 0 0-10.26m16.55 0a5.13 5.13 0 0 0 0 10.26 5.13 5.13 0 0 0 0-10.26m16.54 0a5.13 5.13 0 0 0 0 10.26 5.13 5.13 0 0 0 0-10.26M19.4 196.22a5.13 5.13 0 0 0 0 10.26 5.13 5.13 0 0 0 0-10.26m16.54 0a5.13 5.13 0 0 0 0 10.26 5.13 5.13 0 0 0 0-10.26m16.55 0a5.13 5.13 0 0 0 0 10.26 5.13 5.13 0 0 0 0-10.26m215.02 0a5.13 5.13 0 0 0 0 10.26 5.13 5.13 0 0 0 0-10.26m33.09 0a5.13 5.13 0 0 0 0 10.26 5.13 5.13 0 0 0 0-10.26M35.94 212.76a5.13 5.13 0 0 0 0 10.26 5.13 5.13 0 0 0 0-10.26M19.4 229.3a5.13 5.13 0 0 0 0 10.26 5.13 5.13 0 0 0 0-10.26m264.66 0a5.13 5.13 0 0 0 0 10.26 5.13 5.13 0 0 0 0-10.26M19.4 245.84a5.13 5.13 0 0 0 0 10.26 5.13 5.13 0 0 0 0-10.26m33.09 0a5.13 5.13 0 0 0 0 10.26 5.13 5.13 0 0 0 0-10.26m16.54 0a5.13 5.13 0 0 0 0 10.26 5.13 5.13 0 0 0 0-10.26m215.03 0a5.13 5.13 0 0 0 0 10.26 5.13 5.13 0 0 0 0-10.26m16.54 0a5.13 5.13 0 0 0 0 10.26 5.13 5.13 0 0 0 0-10.26M35.94 262.38a5.13 5.13 0 0 0 0 10.26 5.13 5.13 0 0 0 0-10.26m16.55 0a5.13 5.13 0 0 0 0 10.26 5.13 5.13 0 0 0 0-10.26m16.54 0a5.13 5.13 0 0 0 0 10.26 5.13 5.13 0 0 0 0-10.26m16.54 0a5.13 5.13 0 0 0 0 10.26 5.13 5.13 0 0 0 0-10.26m16.54 0a5.13 5.13 0 0 0 0 10.26 5.13 5.13 0 0 0 0-10.26m115.78 0a5.13 5.13 0 0 0 0 10.26 5.13 5.13 0 0 0 0-10.26m16.54 0a5.13 5.13 0 0 0 0 10.26 5.13 5.13 0 0 0 0-10.26m16.54 0a5.13 5.13 0 0 0 0 10.26 5.13 5.13 0 0 0 0-10.26M52.49 278.93a5.13 5.13 0 0 0 0 10.26 5.13 5.13 0 0 0 0-10.26m115.78 0a5.13 5.13 0 0 0 0 10.26 5.13 5.13 0 0 0 0-10.26m16.54 0a5.13 5.13 0 0 0 0 10.26 5.13 5.13 0 0 0 0-10.26M69.03 295.47a5.13 5.13 0 0 0 0 10.26 5.13 5.13 0 0 0 0-10.26m33.08 0a5.13 5.13 0 0 0 0 10.26 5.13 5.13 0 0 0 0-10.26m16.54 0a5.13 5.13 0 0 0 0 10.26 5.13 5.13 0 0 0 0-10.26m33.08 0a5.13 5.13 0 0 0 0 10.26 5.13 5.13 0 0 0 0-10.26m49.62 0a5.13 5.13 0 0 0 0 10.26 5.13 5.13 0 0 0 0-10.26m16.54 0a5.13 5.13 0 0 0 0 10.26 5.13 5.13 0 0 0 0-10.26" fill="#FFFC00"/><path d="M162.23 56.5c8.45 0 17.01 1.84 24.71 5.29 12.76 5.72 23.18 16.52 28.34 29.56 2.95 7.47 3.04 16.06 2.97 23.97-.04 4.56-.25 9.13-.52 13.68-.13 2.29-.28 4.58-.42 6.87-.08 1.26-.16 2.51-.23 3.77-.05.81-.33 1.9-.15 2.7.39 1.75 3.17 2.92 4.71 3.41 4.05 1.28 8.29.35 12.19-1.03 2.33-.83 4.42-2.21 6.97-1.98 1.85.17 3.99.99 5.3 2.33 1.38 1.41 1.09 2.79-.1 4.14-2.26 2.56-5.98 4.02-9.13 5.05-3.45 1.14-6.95 2.14-10.17 3.87-3.17 1.7-6.09 4.15-7.34 7.63-1.45 4.04-.24 8.16 1.47 11.9 2.9 6.36 6.68 12.32 11.08 17.74 8.24 10.14 19.02 18.37 31.66 22.13 1.86.55 3.74 1.01 5.64 1.36.81.15 1.33-.03 1.04.82-.04.11-.11.21-.17.31-.42.71-1.11 1.27-1.77 1.75-3.72 2.72-8.63 3.98-13.03 5.06-2.08.51-4.18.95-6.29 1.35-2.09.39-4.64.4-6.6 1.25-3.27 1.42-3.75 6.29-4.42 9.29-.26 1.17-.53 2.35-.84 3.51-.28 1.03-.19 1.56-1.29 1.58-1.89.03-3.79-.47-5.63-.81-4.34-.8-8.74-1.23-13.16-1.12-4.82.12-9.75.67-14.24 2.54-4.29 1.79-8.13 4.48-11.91 7.15-6.6 4.66-13.31 9.28-21.33 11.06-4.02.89-8.18.98-12.28.85-4.37-.14-8.68-1.05-12.74-2.68-7.74-3.11-14.04-8.6-21.02-13-3.97-2.5-8.19-4.48-12.85-5.21-4.95-.78-9.98-.93-14.96-.4-1.93.21-3.85.51-5.76.87-1.87.35-3.9 1.01-5.81.94-.9-.04-.91-.31-1.15-1.16-.35-1.26-.64-2.53-.93-3.81-.43-1.95-.8-3.95-1.5-5.83-.55-1.47-1.36-2.96-2.83-3.67-1.88-.91-4.46-.89-6.5-1.27-3.81-.71-7.6-1.56-11.3-2.72-3.18-1-7-2.22-9.39-4.7-.23-.24-.45-.48-.62-.77-.06-.09-.13-.19-.17-.29-.26-.8.05-.69.83-.83a55.8 55.8 0 0 0 10.75-3.11c6.35-2.55 12.19-6.25 17.37-10.71 7.59-6.55 13.87-14.7 18.55-23.55 1.6-3.02 3.32-6.33 3.86-9.71 1.36-8.48-5.62-13.28-12.66-15.84-3.74-1.36-7.59-2.29-11.08-4.27-1.59-.9-4.68-2.71-4.44-4.96.18-1.71 2.3-2.87 3.72-3.4.96-.36 2.01-.59 3.04-.54 1.24.07 2.3.72 3.43 1.19 4.11 1.68 8.71 2.89 13.17 2.19 2.23-.35 4.54-1.19 6.15-2.84.39-.4.53-.56.62-1.04.16-.89-.11-2.07-.17-2.96-.14-2.37-.29-4.74-.44-7.11-.56-9.03-1.1-18.14-.43-27.18.29-3.88.79-7.79 1.93-11.52 1.12-3.71 3.01-7.22 5.03-10.51 3.72-6.06 8.56-11.41 14.31-15.6 8.44-6.14 18.63-9.66 28.99-10.65 3.3-.34 6.63-.33 9.94-.33" fill="#FFF"/></svg>