<svg width="326" height="58" viewBox="0 0 326 58" xmlns="http://www.w3.org/2000/svg"><g fill="none" fill-rule="evenodd"><path d="M261.26 16.74c0-.487.172-.945.517-1.29a1.824 1.824 0 0 1 2.747 2.386l-3.727 4.95.463-6.046zm-59.198 26.202a7.052 7.052 0 0 1-7.044-7.044c0-3.883 3.16-7.043 7.044-7.043a7.051 7.051 0 0 1 7.043 7.043c0 3.884-3.159 7.044-7.043 7.044zm123.066-8.732l-2.844-2.844a.67.67 0 0 0-.948 0l-3.769 3.924a11.906 11.906 0 0 0-1.805-3.09l-7.202-8.61a.67.67 0 0 0-.979-.053L290.832 40.88a7.05 7.05 0 0 1-9.96 0 7.051 7.051 0 0 1-.002-9.96 7.054 7.054 0 0 1 7.691-1.522l-6.479 6.512a.67.67 0 0 0 0 .948l2.844 2.844a.67.67 0 0 0 .947 0l10.172-10.205a.67.67 0 0 0 0-.948l-1.422-1.422c-4.813-4.813-12.63-4.835-17.473-.068l-.013-.013-15.135 15.72c-.092.09-.198.157-.326.157a.416.416 0 0 1-.416-.416V29.08l6.763-7.167.108-.107a7.116 7.116 0 0 0 2.098-5.065 7.116 7.116 0 0 0-2.098-5.065 7.17 7.17 0 0 0-10.13 0 7.118 7.118 0 0 0-2.103 5.066v10.226L242.754 40.88c-2.836 2.837-7.51 2.744-10.226-.28-2.262-2.518-2.366-6.363-.32-9.008l.552-.628a7.049 7.049 0 0 1 9.543-.46.667.667 0 0 0 .903-.037l2.851-2.85a.675.675 0 0 0-.032-.982c-4.865-4.339-12.357-4.175-17.024.492-.34.341-.654.698-.947 1.067l-12.75 14.467-.094.112a.416.416 0 0 1-.742-.258v-6.616c0-6.84-5.566-12.405-12.406-12.405-3.38 0-6.447 1.36-8.687 3.56l-.008-.008-15.135 15.72c-.092.09-.198.157-.326.157a.416.416 0 0 1-.416-.416v-12.8h7.07c.37 0 .67-.3.67-.67v-4.022c0-.37-.3-.67-.67-.67h-7.07V12.722a.67.67 0 0 0-.728-.668l-4.02.342a.671.671 0 0 0-.615.668v16.522l-10.809 11.295c-2.746 2.744-7.214 2.744-9.959-.002-2.745-2.744-2.746-7.209-.006-9.955l.01-.01c2.601-2.597 6.742-2.734 9.506-.41a.667.667 0 0 0 .903-.038l2.851-2.85a.675.675 0 0 0-.032-.982c-4.865-4.339-12.357-4.175-17.024.492l-.02.021-13.439 13.733a7.052 7.052 0 0 1-9.96 0c-2.747-2.747-2.747-7.216 0-9.962a7.054 7.054 0 0 1 7.69-1.52l-6.48 6.511a.67.67 0 0 0 0 .948l2.844 2.844a.672.672 0 0 0 .948 0l10.172-10.205a.67.67 0 0 0 0-.948l-1.422-1.422c-4.837-4.837-12.708-4.837-17.545 0l-.03.032-6.848 6.65c-.947-5.546-5.638-9.886-11.342-10.284a12.368 12.368 0 0 0-9.453 3.412v-.002l-7.642 7.477c-1.169-5.059-5.782-8.848-11.282-8.848-3.035 0-5.504-2.382-5.504-5.31 0-2.928 2.47-5.31 5.504-5.31 2.724 0 4.987 1.922 5.421 4.435.06.348.365.598.717.568l4.02-.342a.672.672 0 0 0 .61-.757c-.703-5.223-5.263-9.267-10.768-9.267-5.992 0-10.866 4.788-10.866 10.673s4.874 10.672 10.866 10.672c3.423 0 6.208 2.691 6.208 6 0 3.307-2.785 5.998-6.208 5.998-3.08 0-5.637-2.18-6.119-5.027a.676.676 0 0 0-.719-.57l-4.019.341a.675.675 0 0 0-.61.76c.752 5.556 5.606 9.858 11.467 9.858 3.09 0 5.9-1.198 7.977-3.144h.001c.124-.117.245-.235.364-.356l6.708-6.565v18.9c0 .37.301.67.671.67H93.5a.67.67 0 0 0 .671-.67V35.898h.033c0-4.01 3.37-7.249 7.427-7.033 3.552.19 6.461 3.1 6.651 6.65.204 3.848-2.699 7.078-6.42 7.401a.668.668 0 0 0-.614.665v4.032c0 .386.327.693.713.671a12.364 12.364 0 0 0 7.96-3.528l.002.003 6.98-6.794A12.372 12.372 0 0 0 129.128 48.3c3.177 0 6.354-1.21 8.772-3.628l6.266-6.403a12.332 12.332 0 0 0 3.401 6.403 12.372 12.372 0 0 0 8.773 3.628c3.177 0 6.354-1.21 8.772-3.628l7.015-7.368v5.045c0 3.207 2.545 5.922 5.752 5.936a5.742 5.742 0 0 0 4.452-2.063l7.572-7.856c1.147 5.663 6.163 9.94 12.16 9.94 2.985 0 5.728-1.06 7.871-2.825a5.775 5.775 0 0 0 4.95 2.812 5.744 5.744 0 0 0 4.483-2.133l6.38-7.238a12.33 12.33 0 0 0 3.254 5.75 12.372 12.372 0 0 0 8.773 3.628c3.177 0 6.354-1.21 8.772-3.628l9.491-10.555-.139 8.232c0 3.207 2.545 5.922 5.752 5.936a5.743 5.743 0 0 0 4.452-2.063l7.592-7.877a12.332 12.332 0 0 0 3.385 6.327 12.368 12.368 0 0 0 8.772 3.628c3.177 0 6.354-1.21 8.773-3.628l12.946-13.653 3.94 4.448.046.06c1.691 2.105 1.784 3.938.272 5.723-.759.898-1.796 1.547-2.967 1.66a4.199 4.199 0 0 1-2.947-.819.678.678 0 0 0-.893.048l-2.858 2.857a.674.674 0 0 0 .035.984 9.498 9.498 0 0 0 6.241 2.313c2.557 0 4.96-.996 6.768-2.804l9.921-10.33a.67.67 0 0 0 0-.948z" fill="#000"/><path d="M43.455 28.99c0 11.302-9.163 20.465-20.466 20.465S2.523 40.292 2.523 28.99 11.686 8.523 22.99 8.523s20.466 9.163 20.466 20.466" fill="#FFF"/><path d="M22.99 9.41c-10.797 0-19.58 8.784-19.58 19.58 0 10.796 8.783 19.579 19.58 19.579 10.795 0 19.58-8.784 19.58-19.58 0-10.796-8.785-19.58-19.58-19.58m0 42.57C10.312 51.978 0 41.665 0 28.988 0 16.313 10.313 6 22.99 6c12.675 0 22.988 10.314 22.988 22.99 0 12.677-10.313 22.99-22.989 22.99" fill="#000"/><path d="M22.99 14.329c-3.36 0-6.455 1.133-8.927 3.034a5.321 5.321 0 0 1-5.37 8.382 14.697 14.697 0 0 0-.365 3.245c0 8.096 6.564 14.66 14.661 14.66S37.65 37.086 37.65 28.99c0-8.097-6.564-14.661-14.66-14.661" fill="#000"/></g></svg>