<svg width="75" height="72" viewBox="570 1084 75 72" xmlns="http://www.w3.org/2000/svg" xmlns:xlink="http://www.w3.org/1999/xlink"><defs><path id="a" d="M0 0h75v72H0z"/><path d="M14.603 17.066C9.555 13.649.657 7.44.633 6.12.6 4.275 1.143.052 1.143.052L19.93 1.317v15.749h-5.326z" id="c"/></defs><g fill="none" fill-rule="evenodd" transform="translate(570 1084)"><mask id="b" fill="#fff"><use xlink:href="#a"/></mask><g mask="url(#b)"><path d="M61.506 101.252c-5.94 0-8.086-6.007-15.139-25.765l-.319-.893c-5.912-16.562-5.219-19.099-3.96-23.703.494-1.804 1.052-3.848 1.32-7.266.303-3.854.59-6.052.782-7.508.368-2.819.368-2.819-.638-7.513l-.226-1.055C39.996 11.963 48.558.104 48.924-.393a.754.754 0 0 1 1.051-.16.746.746 0 0 1 .163 1.046c-.085.117-8.526 11.834-5.34 26.744l.226 1.054c1.041 4.852 1.06 4.945.658 8.02-.189 1.44-.473 3.614-.772 7.43-.28 3.56-.884 5.769-1.37 7.544-1.178 4.312-1.828 6.687 3.927 22.807l.319.893c4.894 13.71 7.35 20.59 10.22 23.32 2.667 2.538 5.848 1.441 12.811-.959.851-.293 1.752-.603 2.71-.927.345-.095 7.399-2.104 7.814-9.143a.75.75 0 0 1 .796-.705c.415.024.732.38.708.793-.482 8.128-8.795 10.466-8.88 10.488-.91.31-1.809.619-2.655.911-4.302 1.482-7.372 2.489-9.804 2.489" fill="#010201"/><path d="M81.994 110.83a.754.754 0 0 1-.716-.518c-2.967-9.031-6.57-13.204-6.605-13.244a.748.748 0 0 1 .07-1.058.754.754 0 0 1 1.06.07c.156.175 3.832 4.409 6.907 13.767a.75.75 0 0 1-.716.982M43.635 39.48c-.11.876-.645 4.727-1.294 6.53-.352.976-.657 1.601-1.323 2.364-.785.898-1.084 1.1-1.4 1.233-.317.134-.806.193-.806.193-.349.05-.714.058-1.067-.011-1.414-.278-2.286-.92-3.53-2.7-1.245-1.78-1.575-3.523-2.069-5.39-.494-1.868-.75-6.19-.75-6.19l12.558 1.167s-.155 1.483-.32 2.805zM32.14 27.616c.16-.629 1.64-1.213 3.477-1.342 1.975-.139 3.616.3 3.664.982l.04.56c.048.682-1.514 1.346-3.49 1.485-1.975.138-3.616-.301-3.664-.982l-.027-.703zm10.68.787l.783.165c-.058-1.21-.478-3.718-.61-4.226-.059-.221.512-.623.219-.994-.216-.275-.667-.572-2.664-1.45-1.57-.658-4.158-.776-6.04.031-1.09.469-2.368 1.087-3.411 1.815-.606.424-1.117.913-1.932 1.233-.703.276-2.108.816-2.274.937-.175.127-.19.21-.278.613-.062.287-.144 1.907-.062 4.3.064 1.87.804 8.171 1.9 11.933 1.031 3.537 2.706 6.447 4.931 8.061 2.509 1.821 4.942 1.353 5.998 1.087 1.11-.279 1.78-.6 2.264-1.072.556-.546 1.534-1.662 1.848-2.415.314-.753 1.046-1.632 1.17-2.121.224-.873.808-2.11 1.206-3.07.161-.389.641-2.106.872-2.715.233-.611.567-1.731.567-1.731l.411-1.381 27.86 2.23.975-4.126-34.894-7.371s-.058-1.098-.111-1.37c-.054-.27-.716-.395-.716-.395l-3.828-.864-2.16-.586s.887-1.573 3.193-1.534c2.294.195 3.38 1.523 4.038 2.862.88 1.79.746 2.154.746 2.154z" fill="#010201"/><path d="M32.141 27.614c.16-.628 1.64-1.211 3.477-1.34 1.975-.14 3.616.3 3.664.98l.04.562c.048.68-1.515 1.345-3.49 1.484-1.975.139-3.616-.3-3.664-.982l-.027-.704z" fill="#FFF100"/><path d="M82.4 62.506a3.23 3.23 0 0 1-.198-.005c-1.655-.086-3.415-1.273-3.395-4.344.017-2.857.76-3.788 2.24-5.643.601-.754 1.35-1.692 2.252-3.018 2.885-4.245 2.7-11.267-2.631-15.209a.747.747 0 0 1-.156-1.049.756.756 0 0 1 1.053-.155c6.047 4.47 6.256 12.437 2.98 17.254a46.629 46.629 0 0 1-2.32 3.11c-1.42 1.78-1.899 2.38-1.914 4.72-.01 1.737.707 2.771 1.97 2.837 1.377.06 2.988-1.04 3.156-2.749.105-1.066.464-1.891 1.059-3.26.772-1.778 1.94-4.464 3.586-9.928 1.424-4.727.112-7.856-1.238-9.647-2.014-2.673-5.24-3.864-7.308-3.856-1.25.01-2.246.423-3.04 1.26-2.202 2.317-2.009 6.98-2.007 7.028a.752.752 0 0 1-.716.784.734.734 0 0 1-.787-.714c-.01-.217-.221-5.353 2.415-8.128 1.077-1.134 2.464-1.715 4.122-1.73 2.537-.045 6.185 1.35 8.526 4.455 1.558 2.068 3.078 5.652 1.475 10.98-1.671 5.547-2.86 8.282-3.648 10.092-.554 1.276-.86 1.978-.942 2.811-.246 2.504-2.504 4.104-4.535 4.104" fill="#010201"/><path d="M86.819 56.847a.75.75 0 0 1-.179-1.478c.186-.047 4.36-1.162 5.647-6.637a.752.752 0 0 1 .904-.559.75.75 0 0 1 .562.9c-1.507 6.41-6.542 7.7-6.756 7.752a.729.729 0 0 1-.178.022" fill="#010201"/><path d="M93.6 42.271a.673.673 0 0 1-.44-.164l-1.855-1.602a.666.666 0 0 1-.068-.943.674.674 0 0 1 .948-.067l1.855 1.602a.67.67 0 1 1-.44 1.174" fill="#221F20"/><path d="M81.402 53.514a.75.75 0 0 1-.627-.334c-.458-.686-.563-1.597-.303-2.632.078-.308.18-.611.282-.914.125-.37.244-.718.305-1.061.283-1.588-.638-3.228-1.473-4.481-.542-.813-1.361-2.044-.852-3.32a.754.754 0 0 1 .976-.42.748.748 0 0 1 .422.974c-.2.505.221 1.204.71 1.938.988 1.485 2.075 3.46 1.7 5.57-.082.455-.224.874-.363 1.281-.09.263-.18.528-.247.797-.107.429-.178 1.026.096 1.438.23.345.136.81-.211 1.039a.745.745 0 0 1-.415.125" fill="#010201"/><path d="M85.077 47.049a.751.751 0 0 1-.733-.586c-.166-.735-.401-1.578-.891-2.242-.474-.644-1.162-1.05-1.84-1.088a.751.751 0 0 1-.71-.79.763.763 0 0 1 .794-.706c1.123.062 2.234.697 2.97 1.698.653.886.946 1.913 1.145 2.8a.75.75 0 0 1-.735.914" fill="#010201"/><g transform="translate(90.499 38.68)"><mask id="d" fill="#fff"><use xlink:href="#c"/></mask><path d="M-11.43 1.608c6.229-.8 9.645.85 12.272 2.532 3.89 2.49 10.54 7.822 12.947 10.053 1.367 1.266 3.384 3.066 4.112 2.856 1.287-.372 3.016-7.686 1.325-8.552C14.824 6.242 3.946 1.26 1.524.22c-3.588-1.538-5.59-2.13-13.085-2.14-3.423-.005-6.151 4.335.13 3.527" fill="#010201" mask="url(#d)"/></g><path d="M-11.884 26.114s-2.394 7.573-4.14 13.752" fill="#FEFEFE"/><path d="M-16.023 40.616a.75.75 0 0 1-.725-.953c1.728-6.12 4.122-13.698 4.147-13.774a.753.753 0 0 1 1.435.45c-.024.075-2.411 7.632-4.132 13.73a.755.755 0 0 1-.725.547m10.045-14.565a.75.75 0 0 1-.713-.99c.621-1.825 1.624-3.038 2.978-3.608 1.987-.834 3.95.078 4.032.117l2.724.932a.749.749 0 0 1 .466.953.754.754 0 0 1-.957.464l-2.802-.963c-.09-.037-1.537-.691-2.889-.117-.936.4-1.65 1.308-2.125 2.703a.754.754 0 0 1-.714.509" fill="#010201"/><path d="M-11.883 26.864a.748.748 0 0 1-.73-.934c.408-1.608 1.18-2.722 2.296-3.312 1.567-.827 3.192-.256 3.259-.232l2.052.602a.75.75 0 1 1-.427 1.437l-2.094-.616c-.049-.015-1.132-.378-2.098.14-.716.385-1.23 1.176-1.53 2.349a.752.752 0 0 1-.728.566m14.076-1.675a.75.75 0 0 1-.706-1.011c1.445-3.876 4.761-4.02 6.305-3.557 3.371 1.18 3.964 1.33 3.988 1.336.4.099.65.5.556.9a.747.747 0 0 1-.892.561c-.09-.02-.71-.179-4.118-1.372-.284-.08-3.141-.794-4.427 2.654a.752.752 0 0 1-.706.489" fill="#010201"/><path d="M-6.865 29.039a.75.75 0 0 1-.723-.962l.888-2.989a.755.755 0 0 1 .936-.506.75.75 0 0 1 .509.932l-.888 2.988a.755.755 0 0 1-.722.537" fill="#010201"/><path d="M.432 30.079l1.761-5.64" fill="#FEFEFE"/><path d="M.431 30.829a.748.748 0 0 1-.719-.973l1.762-5.64a.75.75 0 0 1 .942-.492c.397.122.62.543.496.937L1.15 30.302a.754.754 0 0 1-.719.527m32.783 14.437c-.049 3.171-3.353 5.434-3.529 5.553-7.763 5.187-11.27 7.711-14.743 11.856a.747.747 0 0 0 .578 1.23.752.752 0 0 0 .578-.27c3.347-3.995 6.79-6.47 14.425-11.572 1.316-.878 3.075-2.604 3.828-4.781a9.708 9.708 0 0 1-1.136-2.016zm-.883-2.85c-.357-.485-1.316-1.604-2.769-1.92-1.235-.27-2.593.093-4.029 1.079-.3.203-1.117.74-2.189 1.44-2.937 1.922-7.853 5.14-8.872 5.981-.304.25-1.11.915-1.808.425-.69-.483-.415-1.52-.147-2.258.214-.588.527-1.654.924-3.003 1.06-3.598 2.661-9.036 4.914-14.371 1.033-2.45 3.36-4.41 5.13-5.623 1.32-.906 2.59-1.603 4.06-2.41.615-.337 1.262-.692 1.959-1.088 2.648-1.704 3.32-2.907 2.625-4.743l-.042-.108a3.793 3.793 0 0 0-2.179-2.145c-1.03-.391-2.228-.352-3.377.11l-.638.257c-.18.082-.365.171-.551.266-.067.032-6.054 3.012-9.645 5.245-.081.044-2.875 1.53-4.44 5.542L9.39 30.927a.75.75 0 0 1-.946.486.75.75 0 0 1-.487-.942l1.882-5.878c1.799-4.617 4.983-6.278 5.116-6.347 3.597-2.239 9.647-5.25 9.709-5.28.444-.226.887-.425 1.311-.587l.681-.261.015.033c1.286-.363 2.603-.326 3.774.12 1.391.528 2.47 1.59 3.041 2.993l.048.125c1.196 3.162-.855 5.021-3.25 6.56-.737.421-1.391.78-2.012 1.12-1.436.788-2.675 1.469-3.934 2.332-1.604 1.1-3.703 2.854-4.596 4.968-2.219 5.258-3.806 10.648-4.856 14.213-.362 1.23-.656 2.23-.877 2.878 1.483-1.088 4.991-3.396 8.508-5.698 1.06-.693 1.87-1.222 2.163-1.422 1.798-1.234 3.553-1.675 5.222-1.305a5.63 5.63 0 0 1 1.907.824c.096.7.208 1.353.337 1.84.064.24.125.48.185.716z" fill="#010201"/><path d="M2.935 69.387c-1.075 0-2.16-.098-3.252-.298-6.725-1.77-11.547-5.179-14.394-10.145-4.96-8.656-2.159-18.852-2.036-19.282a.755.755 0 0 1 .927-.517.75.75 0 0 1 .522.923c-.029.1-2.75 10.041 1.9 18.144 2.64 4.598 7.151 7.766 13.41 9.415 5.4.986 10.741-.787 14.976-5.002a.753.753 0 0 1 1.064 0 .746.746 0 0 1 0 1.06c-3.754 3.737-8.32 5.702-13.117 5.702" fill="#010201"/></g></g></svg>