<svg width="52" height="52" viewBox="50 14 52 52" xmlns="http://www.w3.org/2000/svg"><path d="M71.493 14.032l-1.85.395a1.427 1.427 0 0 0-1.092 1.693l.393 1.861a1.418 1.418 0 0 0 1.682 1.1l1.85-.396a1.427 1.427 0 0 0 1.092-1.693l-.393-1.861a1.418 1.418 0 0 0-1.682-1.1m-10.051 4.041l-1.53 1.119a1.433 1.433 0 0 0-.313 1.993l1.111 1.54c.46.637 1.348.779 1.981.315l1.53-1.118a1.433 1.433 0 0 0 .314-1.994l-1.112-1.54a1.412 1.412 0 0 0-1.98-.315m-7.513 7.823l-.945 1.648a1.432 1.432 0 0 0 .52 1.95l1.637.952c.678.394 1.545.16 1.937-.523l.945-1.648a1.432 1.432 0 0 0-.519-1.95l-1.637-.951a1.413 1.413 0 0 0-1.938.522m-3.724 10.216l-.198 1.893a1.425 1.425 0 0 0 1.262 1.568l1.88.2a1.42 1.42 0 0 0 1.56-1.271l.197-1.893a1.425 1.425 0 0 0-1.262-1.568l-1.88-.2a1.42 1.42 0 0 0-1.56 1.271m.749 10.869l.585 1.81a1.416 1.416 0 0 0 1.787.916l1.798-.588a1.43 1.43 0 0 0 .91-1.799l-.584-1.81a1.416 1.416 0 0 0-1.787-.916l-1.798.588a1.43 1.43 0 0 0-.91 1.798m5.048 9.675l1.265 1.414a1.411 1.411 0 0 0 2.003.106l1.405-1.273c.583-.528.63-1.43.105-2.016l-1.265-1.414a1.412 1.412 0 0 0-2.003-.106l-1.405 1.274a1.434 1.434 0 0 0-.105 2.015m8.567 6.667l1.727.774a1.415 1.415 0 0 0 1.873-.723l.769-1.738a1.43 1.43 0 0 0-.719-1.885l-1.727-.774a1.415 1.415 0 0 0-1.873.723l-.769 1.739a1.43 1.43 0 0 0 .719 1.884M75.038 66h1.89c.784 0 1.419-.639 1.419-1.427V62.67c0-.789-.635-1.428-1.418-1.428h-1.891c-.784 0-1.418.64-1.418 1.428v1.903c0 .788.634 1.427 1.418 1.427m10.696-1.905l1.728-.774a1.43 1.43 0 0 0 .718-1.884l-.769-1.739a1.415 1.415 0 0 0-1.872-.723l-1.728.774a1.43 1.43 0 0 0-.718 1.885l.769 1.738a1.415 1.415 0 0 0 1.872.723m8.973-6.122l1.265-1.414a1.434 1.434 0 0 0-.105-2.016l-1.405-1.273a1.412 1.412 0 0 0-2.003.106l-1.265 1.414a1.434 1.434 0 0 0 .105 2.016l1.405 1.273c.582.527 1.479.48 2.003-.106m5.746-9.231l.584-1.81a1.43 1.43 0 0 0-.91-1.799l-1.799-.588a1.416 1.416 0 0 0-1.787.917l-.584 1.81a1.43 1.43 0 0 0 .91 1.798l1.799.588a1.416 1.416 0 0 0 1.787-.916m1.516-10.786l-.198-1.893a1.42 1.42 0 0 0-1.559-1.27l-1.88.199a1.425 1.425 0 0 0-1.262 1.569l.197 1.892a1.42 1.42 0 0 0 1.559 1.27l1.88-.198a1.425 1.425 0 0 0 1.263-1.569m-3.02-10.46l-.946-1.648a1.413 1.413 0 0 0-1.937-.523l-1.637.952a1.432 1.432 0 0 0-.52 1.95l.946 1.648a1.413 1.413 0 0 0 1.937.522l1.638-.952c.678-.394.91-1.267.519-1.95m-8.438-9.471a1.412 1.412 0 0 0-1.98.316l-1.112 1.54c-.46.637-.32 1.53.314 1.993l1.53 1.119c.633.463 1.52.322 1.98-.316l1.112-1.54c.46-.637.32-1.53-.314-1.993l-1.53-1.119zm-8.223-3.597l-1.85-.395a1.418 1.418 0 0 0-1.682 1.099l-.393 1.861a1.427 1.427 0 0 0 1.092 1.693l1.85.396a1.418 1.418 0 0 0 1.682-1.1l.393-1.861a1.427 1.427 0 0 0-1.092-1.693" fill-rule="evenodd"/></svg>